<svg width="19" height="18" viewBox="0 0 19 18" fill="none" xmlns="http://www.w3.org/2000/svg">
<path d="M3.10071 15.4033L5.56814 14.5806L6.01257 14.7966C7.04107 15.2953 8.2165 15.561 9.5 15.561C13.7451 15.561 16.7857 12.5299 16.7857 8.88721C16.7857 5.23119 13.767 2.21342 9.5 2.21342C5.233 2.21342 2.21429 5.23119 2.21429 8.88721C2.22146 10.2863 2.68247 11.6454 3.52814 12.7604L3.93857 13.3065L3.10071 15.402V15.4033ZM2.24221 16.9686C2.13233 17.0054 2.0142 17.01 1.90179 16.9818C1.78937 16.9537 1.68737 16.894 1.60782 16.8098C1.52827 16.7255 1.4745 16.6203 1.45286 16.5066C1.43123 16.3928 1.44263 16.2752 1.48571 16.1677L2.55793 13.4897C1.55393 12.1644 1.00726 10.5494 1 8.88721C1 4.86595 4.25671 1 9.5 1C14.7433 1 18 4.86595 18 8.88721C18 12.9085 14.7093 16.7744 9.5 16.7744C7.98821 16.7744 6.63793 16.4492 5.48314 15.8886L2.241 16.9686H2.24221Z" fill="#021E4E" stroke="#021E4E" stroke-width="0.5"/>
</svg>
