<svg width="19" height="17" viewBox="0 0 19 17" fill="none" xmlns="http://www.w3.org/2000/svg">
<path d="M10.3284 12.8416C10.3284 13.0613 10.2411 13.272 10.0858 13.4273C9.93044 13.5826 9.71978 13.6699 9.50011 13.6699C9.28045 13.6699 9.06979 13.5826 8.91446 13.4273C8.75914 13.272 8.67188 13.0613 8.67188 12.8416C8.67188 12.622 8.75914 12.4113 8.91446 12.256C9.06979 12.1007 9.28045 12.0134 9.50011 12.0134C9.71978 12.0134 9.93044 12.1007 10.0858 12.256C10.2411 12.4113 10.3284 12.622 10.3284 12.8416ZM10.1213 6.00866C10.1213 5.84391 10.0558 5.68591 9.93935 5.56942C9.82286 5.45293 9.66486 5.38748 9.50011 5.38748C9.33537 5.38748 9.17737 5.45293 9.06087 5.56942C8.94438 5.68591 8.87893 5.84391 8.87893 6.00866V9.73574C8.87893 9.90048 8.94438 10.0585 9.06087 10.175C9.17737 10.2915 9.33537 10.3569 9.50011 10.3569C9.66486 10.3569 9.82286 10.2915 9.93935 10.175C10.0558 10.0585 10.1213 9.90048 10.1213 9.73574V6.00866Z" fill="#FF0202"/>
<path d="M7.70775 1.03426C8.50534 -0.344754 10.4948 -0.344754 11.2924 1.03426L18.7192 13.8753C19.5168 15.256 18.5204 16.9828 16.926 16.9828H2.07407C0.478877 16.9828 -0.516666 15.256 0.280928 13.8753L7.70775 1.03426ZM10.2173 1.65627C10.1443 1.53079 10.0396 1.42667 9.91374 1.35429C9.78788 1.28192 9.64524 1.24383 9.50005 1.24383C9.35487 1.24383 9.21222 1.28192 9.08636 1.35429C8.9605 1.42667 8.85583 1.53079 8.7828 1.65627L1.35681 14.4973C1.28444 14.6233 1.24643 14.7661 1.24658 14.9114C1.24672 15.0567 1.28502 15.1994 1.35764 15.3253C1.43025 15.4512 1.53465 15.5558 1.66037 15.6286C1.7861 15.7015 1.92875 15.7401 2.07407 15.7405H16.926C17.0712 15.74 17.2138 15.7014 17.3394 15.6286C17.465 15.5558 17.5693 15.4513 17.6419 15.3255C17.7145 15.1998 17.7528 15.0572 17.7531 14.912C17.7533 14.7668 17.7155 14.6241 17.6433 14.4981L10.2173 1.65627Z" fill="#FF0202"/>
</svg>
