<svg width="23" height="32" viewBox="0 0 23 32" fill="none" xmlns="http://www.w3.org/2000/svg">
<path d="M11.5 22.6909C13.298 22.6886 15.0217 21.9829 16.2931 20.7286C17.5644 19.4743 18.2797 17.7738 18.2821 16V6.69091C18.2821 4.91637 17.5675 3.21451 16.2956 1.95972C15.0238 0.704933 13.2987 0 11.5 0C9.70129 0 7.97625 0.704933 6.70437 1.95972C5.43248 3.21451 4.71795 4.91637 4.71795 6.69091V16C4.72029 17.7738 5.43558 19.4743 6.70695 20.7286C7.97833 21.9829 9.70201 22.6886 11.5 22.6909ZM6.48718 6.69091C6.48718 5.37929 7.01531 4.1214 7.9554 3.19394C8.89549 2.26649 10.1705 1.74545 11.5 1.74545C12.8295 1.74545 14.1045 2.26649 15.0446 3.19394C15.9847 4.1214 16.5128 5.37929 16.5128 6.69091V16C16.5128 17.3116 15.9847 18.5695 15.0446 19.497C14.1045 20.4244 12.8295 20.9455 11.5 20.9455C10.1705 20.9455 8.89549 20.4244 7.9554 19.497C7.01531 18.5695 6.48718 17.3116 6.48718 16V6.69091ZM12.3846 27.3091V31.1273C12.3846 31.3587 12.2914 31.5807 12.1255 31.7444C11.9596 31.9081 11.7346 32 11.5 32C11.2654 32 11.0404 31.9081 10.8745 31.7444C10.7086 31.5807 10.6154 31.3587 10.6154 31.1273V27.3091C7.72872 27.0863 5.03313 25.7987 3.06578 23.7028C1.09843 21.6068 0.00378844 18.8566 0 16C0 15.7685 0.0932002 15.5466 0.259098 15.3829C0.424995 15.2192 0.650001 15.1273 0.884615 15.1273C1.11923 15.1273 1.34424 15.2192 1.51013 15.3829C1.67603 15.5466 1.76923 15.7685 1.76923 16C1.76923 18.5461 2.79443 20.9879 4.61931 22.7882C6.44418 24.5886 8.91924 25.6 11.5 25.6C14.0808 25.6 16.5558 24.5886 18.3807 22.7882C20.2056 20.9879 21.2308 18.5461 21.2308 16C21.2308 15.7685 21.324 15.5466 21.4899 15.3829C21.6558 15.2192 21.8808 15.1273 22.1154 15.1273C22.35 15.1273 22.575 15.2192 22.7409 15.3829C22.9068 15.5466 23 15.7685 23 16C22.9962 18.8566 21.9016 21.6068 19.9342 23.7028C17.9669 25.7987 15.2713 27.0863 12.3846 27.3091Z" fill="#FF0202"/>
</svg>
