<svg width="15" height="20" viewBox="0 0 15 20" fill="none" xmlns="http://www.w3.org/2000/svg">
<path d="M-0.00010486 18.9989L-0.000104074 0.998876C0.000467185 0.816634 0.0507306 0.638 0.145274 0.4822C0.239818 0.3264 0.375061 0.199334 0.536448 0.114681C0.697836 0.0300268 0.879256 -0.00900902 1.06118 0.00177323C1.2431 0.0125555 1.41864 0.0727495 1.5689 0.175876L14.5689 9.17588C15.1079 9.54888 15.1079 10.4469 14.5689 10.8209L1.5689 19.8209C1.41895 19.9251 1.24333 19.9861 1.0611 19.9975C0.878874 20.0089 0.697017 19.9701 0.535288 19.8854C0.373559 19.8006 0.238141 19.6732 0.143751 19.5169C0.0493613 19.3606 -0.000392878 19.1815 -0.00010486 18.9989Z" fill="white"/>
</svg>
